<svg xmlns="http://www.w3.org/2000/svg" width="24" height="24" viewBox="0 0 24 24">
  <title>book-shelf</title>
  <g id="Duotone">
    <g>
      <rect x="14.064" y="4.137" width="5" height="15" transform="translate(-2.126 3.861) rotate(-12.5)" fill="#fff"/>
      <polygon points="15.747 19.5 12.5 19.5 12.5 4.856 12.5 0.5 6.5 0.5 6.5 4.5 2.5 4.5 2.5 19.5 0.5 19.5 0.5 21.5 22.5 21.5 22.5 19.5 15.747 19.5" fill="#fff"/>
    </g>
    <rect x="9.5" y="0.5" width="3" height="19" fill="#cce7ff"/>
    <rect x="5.5" y="21.5" width="12" height="2" fill="#cce7ff"/>
    <rect x="2.5" y="4.5" width="4" height="15" fill="none" stroke="#1078ff" stroke-linecap="round" stroke-linejoin="round"/>
    <rect x="6.5" y="0.5" width="6" height="19" fill="none" stroke="#1078ff" stroke-linecap="round" stroke-linejoin="round"/>
    <line x1="8.5" y1="16.5" x2="10.5" y2="16.5" fill="none" stroke="#1078ff" stroke-linecap="round" stroke-linejoin="round"/>
    <line x1="4" y1="16.5" x2="5" y2="16.5" fill="none" stroke="#1078ff" stroke-linecap="round" stroke-linejoin="round"/>
    <line x1="4.5" y1="6.5" x2="4.5" y2="13.5" fill="none" stroke="#1078ff" stroke-linecap="round" stroke-linejoin="round"/>
    <rect x="14.064" y="4.137" width="5" height="15" transform="translate(-2.126 3.86) rotate(-12.497)" fill="none" stroke="#1078ff" stroke-linecap="round" stroke-linejoin="round"/>
    <line x1="17.158" y1="16.627" x2="18.134" y2="16.41" fill="none" stroke="#1078ff" stroke-linecap="round" stroke-linejoin="round"/>
    <line x1="15.482" y1="6.755" x2="16.997" y2="13.589" fill="none" stroke="#1078ff" stroke-linecap="round" stroke-linejoin="round"/>
    <line x1="9.5" y1="3.5" x2="9.5" y2="13.5" fill="none" stroke="#1078ff" stroke-linecap="round" stroke-linejoin="round"/>
    <rect x="0.5" y="19.5" width="22" height="2" fill="none" stroke="#1078ff" stroke-linecap="round" stroke-linejoin="round"/>
    <line x1="5.5" y1="21.5" x2="5.5" y2="23.5" fill="none" stroke="#1078ff" stroke-linecap="round" stroke-linejoin="round"/>
    <line x1="17.5" y1="21.5" x2="17.5" y2="23.5" fill="none" stroke="#1078ff" stroke-linecap="round" stroke-linejoin="round"/>
  </g>
  <g id="Frames-24px">
    <rect width="24" height="24" fill="none"/>
  </g>
</svg>
