<?xml version="1.0" encoding="utf-8"?>
<!-- Generator: Adobe Illustrator 21.0.2, SVG Export Plug-In . SVG Version: 6.00 Build 0)  -->
<svg version="1.1" xmlns="http://www.w3.org/2000/svg" xmlns:xlink="http://www.w3.org/1999/xlink" x="0px" y="0px"
	 viewBox="0 0 24 24" style="enable-background:new 0 0 24 24;" xml:space="preserve">
<style type="text/css">
	.st0{fill:#FFFFFF;}
	.st1{fill:#CCE7FF;}
	.st2{fill:none;stroke:#1078FF;stroke-linecap:round;stroke-linejoin:round;stroke-miterlimit:10;}
	.st3{fill:none;}
</style>
<g id="Duotone">
	<polygon class="st0" points="18.5,14 18.5,2.5 0.5,2.5 0.5,21.5 15.8,21.5 18.5,23 22.5,20.8 22.5,16.3 	"/>
	<polygon class="st1" points="22.5,16.3 22.5,20.8 18.5,23 14.5,20.8 	"/>
	<rect x="0.5" y="4.5" class="st1" width="18" height="3"/>
	<g>
		<polyline class="st2" points="12.4,21.5 0.5,21.5 0.5,7.5 18.5,7.5 18.5,11.5 		"/>
		<polyline class="st2" points="0.5,7.5 0.5,2.5 18.5,2.5 18.5,7.5 		"/>
		<line class="st2" x1="9.5" y1="4.5" x2="9.5" y2="1.5"/>
		<line class="st2" x1="14.5" y1="4.5" x2="14.5" y2="1.5"/>
		<line class="st2" x1="4.5" y1="4.5" x2="4.5" y2="1.5"/>
	</g>
	<polygon class="st2" points="22.5,20.8 18.5,23 14.5,20.8 14.5,16.3 18.5,14 22.5,16.3 	"/>
	<polyline class="st2" points="16.5,18.5 18,20 20.5,17 	"/>
</g>
<g id="Frames-24px">
	<rect class="st3" width="24" height="24"/>
</g>
</svg>
