<svg xmlns="http://www.w3.org/2000/svg" width="24" height="24" viewBox="0 0 24 24">
  <title>computer-pc-1</title>
  <g id="Duotone">
    <polygon points="18.5 7.5 18.5 3.5 0.5 3.5 0.5 17.5 15.5 17.5 15.5 21.5 22.5 21.5 22.5 7.5 18.5 7.5" fill="#fff"/>
    <polygon points="15.5 7.5 18.5 7.5 18.5 3.5 0.5 17.5 15.5 17.5 15.5 7.5" fill="#cce7ff"/>
    <polyline points="13.5 17.5 0.5 17.5 0.5 3.5 18.5 3.5 18.5 5.501" fill="none" stroke="#1078ff" stroke-linecap="round" stroke-linejoin="round"/>
    <line x1="9.5" y1="17.5" x2="9.5" y2="21.5" fill="none" stroke="#1078ff" stroke-linecap="round" stroke-linejoin="round"/>
    <line x1="6.5" y1="21.5" x2="12.5" y2="21.5" fill="none" stroke="#1078ff" stroke-linecap="round" stroke-linejoin="round"/>
    <rect x="15.5" y="7.5" width="7" height="14" fill="none" stroke="#1078ff" stroke-linecap="round" stroke-linejoin="round"/>
    <line x1="15.5" y1="13.5" x2="22.5" y2="13.5" fill="none" stroke="#1078ff" stroke-linecap="round" stroke-linejoin="round"/>
    <line x1="15.5" y1="11.5" x2="22.5" y2="11.5" fill="none" stroke="#1078ff" stroke-linecap="round" stroke-linejoin="round"/>
    <line x1="15.5" y1="16.5" x2="22.5" y2="16.5" fill="none" stroke="#1078ff" stroke-linecap="round" stroke-linejoin="round"/>
    <line x1="18.5" y1="9.5" x2="20.5" y2="9.5" fill="none" stroke="#1078ff" stroke-linecap="round" stroke-linejoin="round"/>
    <line x1="19.5" y1="19.5" x2="20.5" y2="19.5" fill="none" stroke="#1078ff" stroke-linecap="round" stroke-linejoin="round"/>
  </g>
  <g id="Frames-24px">
    <rect width="24" height="24" fill="none"/>
  </g>
</svg>
