<?xml version="1.0" encoding="utf-8"?>
<!-- Generator: Adobe Illustrator 21.0.2, SVG Export Plug-In . SVG Version: 6.00 Build 0)  -->
<svg version="1.1" xmlns="http://www.w3.org/2000/svg" xmlns:xlink="http://www.w3.org/1999/xlink" x="0px" y="0px"
	 viewBox="0 0 24 24" style="enable-background:new 0 0 24 24;" xml:space="preserve">
<style type="text/css">
	.st0{fill:#FFFFFF;}
	.st1{fill:#CCE7FF;}
	.st2{fill:none;stroke:#1078FF;stroke-linecap:round;stroke-linejoin:round;stroke-miterlimit:10;}
	.st3{fill:none;}
</style>
<g id="Duotone">
	<polygon class="st0" points="21,15.5 20,9.5 3,9.5 2,15.5 0.5,15.5 2,23.5 5.5,23.5 5.4,22.5 5.4,22.5 17.6,22.5 17.6,22.5 
		17.5,23.5 21,23.5 22.5,15.5 	"/>
	<polygon class="st1" points="4.8,17.5 5,19.5 18,19.5 18.3,17.5 	"/>
	<polygon class="st1" points="17.8,21.5 17.5,23.5 21,23.5 21.4,21.5 	"/>
	<polygon class="st1" points="1.6,21.5 2,23.5 5.5,23.5 5.3,21.5 	"/>
	<g>
		<polygon class="st2" points="5.5,23.5 2,23.5 0.5,15.5 4.5,15.5 		"/>
		<polygon class="st2" points="21,23.5 17.5,23.5 18.5,15.5 22.5,15.5 		"/>
		<line class="st2" x1="17.6" y1="22.5" x2="5.4" y2="22.5"/>
		<line class="st2" x1="5" y1="19.5" x2="18" y2="19.5"/>
		<polyline class="st2" points="21,15.5 20,9.5 3,9.5 2,15.5 		"/>
		<line class="st2" x1="4.8" y1="17.5" x2="18.2" y2="17.5"/>
		<line class="st2" x1="6" y1="13.5" x2="7.5" y2="12"/>
		<line class="st2" x1="6" y1="12" x2="7.5" y2="13.5"/>
		<line class="st2" x1="15" y1="13.5" x2="16.5" y2="12"/>
		<line class="st2" x1="15" y1="12" x2="16.5" y2="13.5"/>
		<line class="st2" x1="11.5" y1="9.5" x2="11.5" y2="17.5"/>
	</g>
</g>
<g id="Frames-24px">
	<rect class="st3" width="24" height="24"/>
</g>
</svg>
