<?xml version="1.0" encoding="utf-8"?>
<!-- Generator: Adobe Illustrator 21.0.2, SVG Export Plug-In . SVG Version: 6.00 Build 0)  -->
<svg version="1.1" xmlns="http://www.w3.org/2000/svg" xmlns:xlink="http://www.w3.org/1999/xlink" x="0px" y="0px"
	 viewBox="0 0 24 24" style="enable-background:new 0 0 24 24;" xml:space="preserve">
<style type="text/css">
	.st0{fill:#FFFFFF;}
	.st1{fill:#CCE7FF;}
	.st2{fill:none;stroke:#1078FF;stroke-linecap:round;stroke-linejoin:round;stroke-miterlimit:10;}
	.st3{fill:#1078FF;}
	.st4{fill:none;}
</style>
<g id="Duotone">
	<polygon class="st0" points="13.5,7 13.5,12 19,13.5 21,23.5 16,15.5 9.5,14.5 9.5,7 11.5,6 	"/>
	<polygon class="st0" points="9.5,1.5 11.5,0.5 13.5,1.5 13.5,4 11.5,5 9.5,4 	"/>
	<polyline class="st1" points="12.5,17.5 12.5,20.3 7,23.5 1.5,20.3 1.5,13.5 5.5,11.5 7.5,11.5 	"/>
	<polyline class="st2" points="12.5,17.5 12.5,20.3 7,23.5 1.5,20.3 1.5,13.5 5.5,11.5 7.5,11.5 6,6 2.5,5 	"/>
	<polygon class="st2" points="13.5,7 13.5,12 19,13.5 21,23.5 16,15.5 9.5,14.5 9.5,7 11.5,6 	"/>
	<polygon class="st2" points="9.5,1.5 11.5,0.5 13.5,1.5 13.5,4 11.5,5 9.5,4 	"/>
</g>
<g id="Frames-24px">
	<rect class="st4" width="24" height="24"/>
</g>
</svg>
