<svg xmlns="http://www.w3.org/2000/svg" width="24" height="24" viewBox="0 0 24 24">
  <title>filter-1</title>
  <g id="Duotone">
    <polygon points="16 6.5 6 6.5 0.5 4 0.5 7 9.5 16.5 9.5 22 12.5 23.5 12.5 16.5 21.5 7 21.5 4 16 6.5" fill="#fff"/>
    <polygon points="11 22.75 12.5 23.5 12.5 16.5 21.5 7 21.5 4 11 4 11 22.75" fill="#cce7ff"/>
    <polygon points="6 6.5 0.5 4 6 1.5 16 1.5 21.5 4 16 6.5 6 6.5" fill="#cce7ff"/>
    <polygon points="6 6.5 0.5 4 6 1.5 16 1.5 21.5 4 16 6.5 6 6.5" fill="none" stroke="#1078ff" stroke-linecap="round" stroke-linejoin="round"/>
    <polyline points="0.5 4 0.5 7 9.5 16.5 9.5 22 12.5 23.5 12.5 16.5 21.5 7 21.5 4" fill="none" stroke="#1078ff" stroke-linecap="round" stroke-linejoin="round"/>
    <polyline points="14.56 14.326 18.5 15.5 22.5 11 20.325 8.241" fill="none" stroke="#1078ff" stroke-linecap="round" stroke-linejoin="round"/>
  </g>
  <g id="Frames-24px">
    <rect width="24" height="24" fill="none"/>
  </g>
</svg>
