<?xml version="1.0" encoding="utf-8"?>
<!-- Generator: Adobe Illustrator 21.0.2, SVG Export Plug-In . SVG Version: 6.00 Build 0)  -->
<svg version="1.1" xmlns="http://www.w3.org/2000/svg" xmlns:xlink="http://www.w3.org/1999/xlink" x="0px" y="0px"
	 viewBox="0 0 24 24" style="enable-background:new 0 0 24 24;" xml:space="preserve">
<style type="text/css">
	.st0{fill:#FFFFFF;}
	.st1{fill:#FFFFFF;stroke:#1078FF;stroke-linecap:round;stroke-linejoin:round;stroke-miterlimit:10;}
	.st2{fill:#CCE7FF;}
	.st3{fill:none;stroke:#1078FF;stroke-linecap:round;stroke-linejoin:round;stroke-miterlimit:10;}
	.st4{fill:#1078FF;}
	.st5{fill:none;}
</style>
<g id="Duotone">
	<polygon class="st0" points="1.5,7.5 4.5,10.5 4.5,23.5 7.5,23.5 7.5,10.5 10.5,7.5 	"/>
	<polygon class="st0" points="22.5,3.5 22.5,8.5 19.5,11.5 19.5,23.5 16.5,23.5 16.5,11.5 13.5,8.5 13.5,3.5 18,0.5 	"/>
	<polygon class="st2" points="6,7.5 6,23.5 7.5,23.5 7.5,10.5 10.5,7.5 	"/>
	<polygon class="st2" points="22.5,3.5 22.5,8.5 19.5,11.5 19.5,23.5 16.5,23.5 16.5,11.5 	"/>
	<g>
		<polyline class="st3" points="15.5,6.5 15.5,4.5 17,3.5 		"/>
		<polyline class="st3" points="1.5,0.5 1.5,7.5 4.5,10.5 4.5,23.5 7.5,23.5 7.5,10.5 10.5,7.5 10.5,0.5 		"/>
		<polygon class="st3" points="22.5,3.5 22.5,8.5 19.5,11.5 19.5,23.5 16.5,23.5 16.5,11.5 13.5,8.5 13.5,3.5 18,0.5 		"/>
		<line class="st3" x1="4.5" y1="5.5" x2="4.5" y2="0.5"/>
		<line class="st3" x1="7.5" y1="5.5" x2="7.5" y2="0.5"/>
	</g>
</g>
<g id="Frames-24px">
	<rect class="st5" width="24" height="24"/>
</g>
</svg>
