<svg xmlns="http://www.w3.org/2000/svg" width="24" height="24" viewBox="0 0 24 24">
  <title>group-chat</title>
  <g id="Duotone">
    <polygon points="18.5 10.5 9.5 10.5 7 13 7 10.5 4.5 10.5 4.5 1.5 18.5 1.5 18.5 10.5" fill="#fff"/>
    <polygon points="5.5 18.5 3.5 19.5 1.5 18.5 1.5 16 3.5 15 5.5 16 5.5 18.5" fill="#fff"/>
    <polygon points="6.5 23.5 6.5 21.5 3.5 20.5 0.5 21.5 0.5 23.5 6.5 23.5" fill="#fff"/>
    <polygon points="14.5 23.5 14.5 21.5 11.5 20.5 8.5 21.5 8.5 23.5 14.5 23.5" fill="#fff"/>
    <polygon points="22.5 23.5 22.5 21.5 19.5 20.5 16.5 21.5 16.5 23.5 22.5 23.5" fill="#fff"/>
    <polygon points="13.5 18.5 11.5 19.5 9.5 18.5 9.5 16 11.5 15 13.5 16 13.5 18.5" fill="#fff"/>
    <polygon points="21.5 18.5 19.5 19.5 17.5 18.5 17.5 16 19.5 15 21.5 16 21.5 18.5" fill="#fff"/>
    <polygon points="5.5 18.5 5.5 16 3.5 15 3.5 19.5 5.5 18.5" fill="#cce7ff"/>
    <polygon points="3.5 23.5 6.5 23.5 6.5 21.5 3.5 20.5 3.5 23.5" fill="#cce7ff"/>
    <polygon points="13.5 18.5 13.5 16 11.5 15 11.5 19.5 13.5 18.5" fill="#cce7ff"/>
    <polygon points="11.5 23.5 14.5 23.5 14.5 21.5 11.5 20.5 11.5 23.5" fill="#cce7ff"/>
    <polygon points="21.5 18.5 21.5 16 19.5 15 19.5 19.5 21.5 18.5" fill="#cce7ff"/>
    <polygon points="19.5 23.5 22.5 23.5 22.5 21.5 19.5 20.5 19.5 23.5" fill="#cce7ff"/>
    <polygon points="4.5 10.5 7 10.5 7 13 9.5 10.5 18.5 10.5 18.5 8.5 4.5 8.5 4.5 10.5" fill="#cce7ff"/>
    <line x1="7.5" y1="4.5" x2="15.5" y2="4.5" fill="none" stroke="#1078ff" stroke-linecap="round" stroke-linejoin="round"/>
    <line x1="7.5" y1="6.5" x2="12.5" y2="6.5" fill="none" stroke="#1078ff" stroke-linecap="round" stroke-linejoin="round"/>
    <polygon points="18.5 10.5 9.5 10.5 7 13 7 10.5 4.5 10.5 4.5 1.5 18.5 1.5 18.5 10.5" fill="none" stroke="#1078ff" stroke-linecap="round" stroke-linejoin="round"/>
    <polygon points="5.5 18.5 3.5 19.5 1.5 18.5 1.5 16 3.5 15 5.5 16 5.5 18.5" fill="none" stroke="#1078ff" stroke-linecap="round" stroke-linejoin="round"/>
    <polygon points="6.5 23.5 6.5 21.5 3.5 20.5 0.5 21.5 0.5 23.5 6.5 23.5" fill="none" stroke="#1078ff" stroke-linecap="round" stroke-linejoin="round"/>
    <polygon points="14.5 23.5 14.5 21.5 11.5 20.5 8.5 21.5 8.5 23.5 14.5 23.5" fill="none" stroke="#1078ff" stroke-linecap="round" stroke-linejoin="round"/>
    <polygon points="22.5 23.5 22.5 21.5 19.5 20.5 16.5 21.5 16.5 23.5 22.5 23.5" fill="none" stroke="#1078ff" stroke-linecap="round" stroke-linejoin="round"/>
    <polygon points="13.5 18.5 11.5 19.5 9.5 18.5 9.5 16 11.5 15 13.5 16 13.5 18.5" fill="none" stroke="#1078ff" stroke-linecap="round" stroke-linejoin="round"/>
    <polygon points="21.5 18.5 19.5 19.5 17.5 18.5 17.5 16 19.5 15 21.5 16 21.5 18.5" fill="none" stroke="#1078ff" stroke-linecap="round" stroke-linejoin="round"/>
  </g>
  <g id="Frames-24px">
    <rect width="24" height="24" fill="none"/>
  </g>
</svg>
