<?xml version="1.0" encoding="utf-8"?>
<!-- Generator: Adobe Illustrator 21.0.2, SVG Export Plug-In . SVG Version: 6.00 Build 0)  -->
<svg version="1.1" xmlns="http://www.w3.org/2000/svg" xmlns:xlink="http://www.w3.org/1999/xlink" x="0px" y="0px"
	 viewBox="0 0 24 24" style="enable-background:new 0 0 24 24;" xml:space="preserve">
<style type="text/css">
	.st0{fill:#FFFFFF;}
	.st1{fill:#CCE7FF;}
	.st2{fill:none;stroke:#1078FF;stroke-linecap:round;stroke-linejoin:round;stroke-miterlimit:10;}
	.st3{fill:none;stroke:#1078FF;stroke-linejoin:round;stroke-miterlimit:10;}
	.st4{fill:none;stroke:#1078FF;stroke-linecap:round;stroke-miterlimit:10;}
	.st5{fill:none;}
</style>
<g id="Duotone">
	<polygon class="st0" points="12,21.5 5.5,10.1 5.5,4.6 12,0.5 18.5,4.6 18.5,10.1 	"/>
	<polygon class="st1" points="12,0.5 12,4.4 14.5,5.9 14.5,8.6 12,10.1 12,21.5 18.5,10.1 18.5,4.6 	"/>
	<polyline class="st2" points="16.5,19.5 19.5,19.5 23.5,21.5 19.5,23.5 4.5,23.5 0.5,21.5 4.5,19.5 7.5,19.5 	"/>
	<polygon class="st2" points="12,21.5 5.5,10.1 5.5,4.6 12,0.5 18.5,4.6 18.5,10.1 	"/>
	<polygon class="st2" points="9.5,5.9 12,4.4 14.5,5.9 14.5,8.6 12,10.1 9.5,8.6 	"/>
</g>
<g id="Frames-24px">
	<rect class="st5" width="24" height="24"/>
</g>
</svg>
