<?xml version="1.0" encoding="utf-8"?>
<!-- Generator: Adobe Illustrator 21.0.2, SVG Export Plug-In . SVG Version: 6.00 Build 0)  -->
<svg version="1.1" xmlns="http://www.w3.org/2000/svg" xmlns:xlink="http://www.w3.org/1999/xlink" x="0px" y="0px"
	 viewBox="0 0 24 24" style="enable-background:new 0 0 24 24;" xml:space="preserve">
<style type="text/css">
	.st0{fill:#FFFFFF;}
	.st1{fill:#CCE7FF;}
	.st2{fill:none;stroke:#1078FF;stroke-linecap:round;stroke-linejoin:round;stroke-miterlimit:10;}
	.st3{fill:none;}
</style>
<g id="Duotone">
	<path class="st0" d="M22.5,7.5h-14v9l-0.8-1H3.3l-2.8,4l2.8,4h4.5l1.5-2H11l1.5,1.5l1.5-1.5l1.5,1.5l2.5-3.5l-0.8-1h5.3V7.5z
		 M5.5,21.5h-1l-1.5-2l1.5-2h1V21.5z"/>
	<polygon class="st1" points="15.5,7.5 15.5,10.5 17,12 15.5,13.5 15.5,17.5 16.5,17.5 17.3,18.5 22.5,18.5 22.5,7.5 	"/>
	<polygon class="st1" points="5.5,19.5 5.5,21.5 4.5,21.5 3,19.5 0.5,19.5 3.3,23.5 7.8,23.5 9.3,21.5 11,21.5 12.5,23 14,21.5 
		15.5,23 18,19.5 	"/>
	<polyline class="st2" points="8.5,13.5 8.5,7.5 22.5,7.5 22.5,18.5 20.5,18.5 	"/>
	<polyline class="st2" points="11.5,7.5 11.5,2.5 15.5,0.5 19.5,2.5 19.5,7.5 	"/>
	<line class="st2" x1="15.5" y1="15.5" x2="15.5" y2="13.5"/>
	<line class="st2" x1="18" y1="19.5" x2="9.5" y2="19.5"/>
	<polygon class="st2" points="18,19.5 16.5,17.5 9.3,17.5 7.7,15.5 3.2,15.5 0.5,19.5 3.2,23.5 7.7,23.5 9.3,21.5 11,21.5 12.5,23 
		14,21.5 15.5,23 	"/>
	<rect x="14.4" y="10.9" transform="matrix(0.7071 -0.7072 0.7072 0.7071 -3.9453 14.4762)" class="st2" width="2.1" height="2.1"/>
	<polygon class="st2" points="4.5,21.5 3,19.5 4.5,17.5 5.5,17.5 5.5,21.5 	"/>
</g>
<g id="Frames-24px">
	<rect class="st3" width="24" height="24"/>
</g>
</svg>
