<?xml version="1.0" encoding="utf-8"?>
<!-- Generator: Adobe Illustrator 21.0.2, SVG Export Plug-In . SVG Version: 6.00 Build 0)  -->
<svg version="1.1" xmlns="http://www.w3.org/2000/svg" xmlns:xlink="http://www.w3.org/1999/xlink" x="0px" y="0px"
	 viewBox="0 0 24 24" style="enable-background:new 0 0 24 24;" xml:space="preserve">
<style type="text/css">
	.st0{fill:#FFFFFF;}
	.st1{fill:#CCE7FF;}
	.st2{fill:none;stroke:#1078FF;stroke-linecap:round;stroke-linejoin:round;stroke-miterlimit:10;}
	.st3{fill:#1078FF;}
	.st4{fill:none;}
</style>
<g id="Duotone">
	<polygon class="st0" points="21.5,17.8 11.5,23.5 1.5,17.8 1.5,6.3 11.5,0.5 21.5,6.3 	"/>
	<polygon class="st1" points="19.5,16.5 11.5,21 3.5,16.5 1.5,17.8 11.5,23.5 21.5,17.8 	"/>
	<polygon class="st1" points="11.5,14.5 14.5,17.5 14.5,11.5 17.5,11.5 18.5,9.5 15.8,8.2 9.5,14.5 	"/>
	<polygon class="st2" points="21.5,17.8 11.5,23.5 1.5,17.8 1.5,6.3 11.5,0.5 21.5,6.3 	"/>
	<polygon class="st2" points="5.5,17.5 5.5,10.5 11.5,10.5 14.5,6 15.5,8 18.5,9.5 17.5,11.5 14.5,11.5 14.5,17.5 11.5,14.5 9,14.5 
			"/>
	<line class="st2" x1="5.5" y1="10.5" x2="4" y2="8.5"/>
</g>
<g id="Frames-24px">
	<rect class="st4" width="24" height="24"/>
</g>
</svg>
