<?xml version="1.0" encoding="utf-8"?>
<!-- Generator: Adobe Illustrator 21.0.2, SVG Export Plug-In . SVG Version: 6.00 Build 0)  -->
<svg version="1.1" xmlns="http://www.w3.org/2000/svg" xmlns:xlink="http://www.w3.org/1999/xlink" x="0px" y="0px"
	 viewBox="0 0 24 24" style="enable-background:new 0 0 24 24;" xml:space="preserve">
<style type="text/css">
	.st0{fill:#FFFFFF;}
	.st1{fill:#CCE7FF;}
	.st2{fill:none;stroke:#1078FF;stroke-linecap:round;stroke-linejoin:round;stroke-miterlimit:10;}
	.st3{fill:#1078FF;}
	.st4{fill:none;}
</style>
<g id="Duotone">
	<polygon class="st0" points="23.5,7 0.5,19 0.5,23.5 23.5,11.5 	"/>
	<polygon class="st1" points="16.5,15.2 16.5,10.7 23.5,7 23.5,11.5 	"/>
	<g>
		<polyline class="st2" points="10.8,13.6 0.5,19 0.5,23.5 13.5,16.7 		"/>
		<polyline class="st2" points="17.7,14.5 23.5,11.5 23.5,7 14.6,11.6 		"/>
		<line class="st2" x1="16.5" y1="10.7" x2="16.5" y2="13"/>
		<line class="st2" x1="1.5" y1="18.5" x2="4.4" y2="21.4"/>
		<polyline class="st2" points="1.5,15 0.5,14 2.5,11.5 0.5,9 2.5,6.5 0.5,4 2,2 		"/>
		<line class="st2" x1="23.5" y1="23.5" x2="4.3" y2="4.3"/>
	</g>
</g>
<g id="Frames-24px">
	<rect class="st4" width="24" height="24"/>
</g>
</svg>
